#N canvas 1024 106 795 683 10;
#X obj 430 594 dac~;
#X obj 489 507 r~ master;
#X obj 136 238 phasor~;
#X obj 254 632 s~ master;
#X obj 152 433 *~;
#X obj 273 189 st-adsr~, f 11;
#X obj 306 61 vsl 12 60 1 10000 1 1 empty empty A 0 -9 0 10 -262144
-1 -1 0 1;
#X obj 322 61 vsl 12 60 1 10000 1 1 empty empty D 0 -9 0 10 -262144
-1 -1 0 1;
#X obj 339 61 vsl 12 60 0 1 0 1 empty empty S 0 -9 0 10 -262144 -1
-1 5900 1;
#X obj 355 61 vsl 12 60 1 30000 1 1 empty empty R 0 -9 0 10 -262144
-1 -1 0 1;
#X obj 226 101 unpack 0 0;
#X obj 226 75 r \$0-note;
#X obj 136 176 stripnote;
#X obj 136 204 mtof;
#X obj 136 153 r \$0-note;
#X obj 490 260 notein;
#X obj 113 111 s \$0-note;
#X obj 101 82 pack f f;
#X obj 257 550 *~ 0.25;
#X obj 466 353 pack f f f;
#X obj 393 378 route 1 2 3 4;
#N canvas 613 397 759 546 voice 0;
#X obj 318 161 phasor~;
#X obj 421 166 st-adsr~, f 11;
#X obj 364 36 inlet;
#X obj 364 77 unpack f f;
#X obj 322 119 mtof;
#X obj 360 303 *~;
#X obj 359 426 outlet~;
#X obj 466 50 inlet adsr;
#X obj 447 103 unpack f f f f;
#X connect 0 0 5 0;
#X connect 1 0 5 1;
#X connect 2 0 3 0;
#X connect 3 0 4 0;
#X connect 3 1 1 0;
#X connect 4 0 0 0;
#X connect 5 0 6 0;
#X connect 7 0 8 0;
#X connect 8 0 1 1;
#X connect 8 1 1 2;
#X connect 8 2 1 3;
#X connect 8 3 1 4;
#X restore 453 435 pd voice;
#X obj 474 319 poly 4 1;
#X obj 304 276 vsl 12 60 1 10000 1 1 empty empty A 0 -9 0 10 -262144
-1 -1 800 1;
#X obj 320 276 vsl 12 60 1 10000 1 1 empty empty D 0 -9 0 10 -262144
-1 -1 2600 1;
#X obj 337 276 vsl 12 60 0 1 0 1 empty empty S 0 -9 0 10 -262144 -1
-1 3200 1;
#X obj 353 275 vsl 12 60 1 30000 1 1 empty empty R 0 -9 0 10 -262144
-1 -1 4100 1;
#X obj 262 357 pack f f f f;
#N canvas 456 346 759 546 voice 0;
#X obj 318 161 phasor~;
#X obj 421 166 st-adsr~, f 11;
#X obj 364 36 inlet;
#X obj 364 77 unpack f f;
#X obj 322 119 mtof;
#X obj 360 303 *~;
#X obj 359 426 outlet~;
#X obj 466 50 inlet adsr;
#X obj 447 103 unpack f f f f;
#X connect 0 0 5 0;
#X connect 1 0 5 1;
#X connect 2 0 3 0;
#X connect 3 0 4 0;
#X connect 3 1 1 0;
#X connect 4 0 0 0;
#X connect 5 0 6 0;
#X connect 7 0 8 0;
#X connect 8 0 1 1;
#X connect 8 1 1 2;
#X connect 8 2 1 3;
#X connect 8 3 1 4;
#X restore 226 434 pd voice;
#N canvas 613 397 759 546 voice 0;
#X obj 318 161 phasor~;
#X obj 421 166 st-adsr~, f 11;
#X obj 364 36 inlet;
#X obj 364 77 unpack f f;
#X obj 322 119 mtof;
#X obj 360 303 *~;
#X obj 359 426 outlet~;
#X obj 466 50 inlet adsr;
#X obj 447 103 unpack f f f f;
#X connect 0 0 5 0;
#X connect 1 0 5 1;
#X connect 2 0 3 0;
#X connect 3 0 4 0;
#X connect 3 1 1 0;
#X connect 4 0 0 0;
#X connect 5 0 6 0;
#X connect 7 0 8 0;
#X connect 8 0 1 1;
#X connect 8 1 1 2;
#X connect 8 2 1 3;
#X connect 8 3 1 4;
#X restore 309 435 pd voice;
#N canvas 613 397 759 546 voice 0;
#X obj 318 161 phasor~;
#X obj 421 166 st-adsr~, f 11;
#X obj 364 36 inlet;
#X obj 364 77 unpack f f;
#X obj 322 119 mtof;
#X obj 360 303 *~;
#X obj 359 426 outlet~;
#X obj 466 50 inlet adsr;
#X obj 447 103 unpack f f f f;
#X connect 0 0 5 0;
#X connect 1 0 5 1;
#X connect 2 0 3 0;
#X connect 3 0 4 0;
#X connect 3 1 1 0;
#X connect 4 0 0 0;
#X connect 5 0 6 0;
#X connect 7 0 8 0;
#X connect 8 0 1 1;
#X connect 8 1 1 2;
#X connect 8 2 1 3;
#X connect 8 3 1 4;
#X restore 379 432 pd voice;
#X connect 1 0 0 0;
#X connect 2 0 4 0;
#X connect 5 0 4 1;
#X connect 6 0 5 1;
#X connect 7 0 5 2;
#X connect 8 0 5 3;
#X connect 9 0 5 4;
#X connect 10 1 5 0;
#X connect 11 0 10 0;
#X connect 12 0 13 0;
#X connect 13 0 2 0;
#X connect 14 0 12 0;
#X connect 15 0 22 0;
#X connect 15 1 22 1;
#X connect 17 0 16 0;
#X connect 18 0 3 0;
#X connect 19 0 20 0;
#X connect 20 0 28 0;
#X connect 20 1 29 0;
#X connect 20 2 30 0;
#X connect 20 3 21 0;
#X connect 21 0 18 0;
#X connect 22 0 19 0;
#X connect 22 1 19 1;
#X connect 22 2 19 2;
#X connect 23 0 27 0;
#X connect 24 0 27 1;
#X connect 25 0 27 2;
#X connect 26 0 27 3;
#X connect 27 0 21 1;
#X connect 27 0 28 1;
#X connect 27 0 30 1;
#X connect 27 0 29 1;
#X connect 28 0 18 0;
#X connect 29 0 18 0;
#X connect 30 0 18 0;
