#N canvas 1047 128 669 601 10;
#X obj 100 72 bng 15 250 50 0 empty empty empty 17 7 0 10 -262144 -1
-1;
#X obj 187 72 bng 15 250 50 0 empty empty empty 17 7 0 10 -262144 -1
-1;
#X obj 187 118 bng 15 250 50 0 empty empty empty 17 7 0 10 -262144
-1 -1;
#N canvas 799 497 636 498 loadMIDIfile 1;
#X obj 67 68 inlet;
#X obj 180 68 inlet;
#X msg 67 115 read;
#X obj 67 162 seq;
#X msg 180 115 start 65536;
#X obj 274 176 bng 15 250 50 0 empty empty empty 17 7 0 10 -262144
-1 -1;
#X obj 328 206 s finished;
#X obj 67 206 midiparse, f 27;
#X obj 67 233 unpack;
#X obj 67 260 stripnote;
#X floatatom 67 293 5 0 0 0 - - -;
#X obj 67 323 outlet;
#X obj 274 206 outlet;
#X text 328 187 bang when finished;
#X text 66 51 Open;
#X text 180 51 Play;
#X text 66 342 MIDI Pitch;
#X connect 0 0 2 0;
#X connect 1 0 4 0;
#X connect 2 0 3 0;
#X connect 3 0 7 0;
#X connect 3 1 5 0;
#X connect 4 0 3 0;
#X connect 5 0 6 0;
#X connect 5 0 12 0;
#X connect 7 0 8 0;
#X connect 8 0 9 0;
#X connect 8 1 9 1;
#X connect 9 0 10 0;
#X connect 10 0 11 0;
#X restore 100 94 pd loadMIDIfile;
#X text 117 71 Open;
#X text 208 71 Play;
#X text 208 117 finished;
#N canvas 768 277 544 418 markovMIDIAnalysis 0;
#X obj 66 105 inlet;
#N canvas 1085 391 450 300 pair 0;
#X obj 115 61 inlet;
#X floatatom 115 90 5 0 0 0 - - -;
#X obj 115 118 t f b f;
#X obj 115 147 f;
#X obj 115 176 pack;
#X obj 115 205 outlet;
#X text 161 205 list of paired numbers;
#X text 59 61 float in;
#X connect 0 0 1 0;
#X connect 1 0 2 0;
#X connect 2 0 3 1;
#X connect 2 1 3 0;
#X connect 2 2 4 1;
#X connect 3 0 4 0;
#X connect 4 0 5 0;
#X restore 66 134 pd pair;
#X msg 66 157 merge \$1 \$2;
#X obj 66 182 coll pitchMatrix;
#C restore;
#X obj 154 135 r resetMatrix;
#X msg 154 157 clear;
#X connect 0 0 1 0;
#X connect 1 0 2 0;
#X connect 2 0 3 0;
#X connect 4 0 5 0;
#X connect 5 0 3 0;
#X restore 100 140 pd markovMIDIAnalysis;
#X obj 100 189 tgl 15 0 empty empty empty 17 7 0 10 -262144 -1 -1 0
1;
#X obj 100 247 bng 15 250 50 0 empty empty empty 17 7 0 10 -262144
-1 -1;
#X floatatom 100 315 5 0 0 0 - - -;
#X obj 100 343 makenote 100 500;
#X obj 129 373 noteout;
#X obj 229 247 bng 15 250 50 0 empty empty empty 17 7 0 10 -262144
-1 -1;
#N canvas 186 354 611 542 markovPitchGenerate 1;
#X obj 179 68 inlet;
#X obj 367 68 inlet;
#X obj 179 95 bng 15 250 50 0 empty empty empty 17 7 0 10 -262144 -1
-1;
#X obj 413 68 r finished;
#X msg 367 95 next;
#X obj 367 122 coll pitchMatrix;
#C restore;
#X floatatom 367 149 5 0 0 0 - - -;
#X obj 179 176 f;
#X obj 179 203 t f f;
#X obj 116 229 coll pitchMatrix;
#C restore;
#X obj 116 256 length;
#X obj 116 278 t b f;
#X obj 116 300 random;
#X obj 116 322 + 1;
#X obj 185 336 pack;
#X msg 185 357 nth \$2 \$1;
#X obj 185 378 coll pitchMatrix;
#C restore;
#X floatatom 365 413 5 0 0 0 - - -;
#X obj 365 439 outlet;
#X msg 42 140 open;
#X msg 91 138 clear;
#X connect 0 0 2 0;
#X connect 1 0 4 0;
#X connect 2 0 7 0;
#X connect 3 0 4 0;
#X connect 4 0 5 0;
#X connect 5 0 6 0;
#X connect 6 0 7 1;
#X connect 7 0 8 0;
#X connect 8 0 9 0;
#X connect 8 1 14 1;
#X connect 9 0 10 0;
#X connect 10 0 11 0;
#X connect 11 0 12 0;
#X connect 11 1 12 1;
#X connect 12 0 13 0;
#X connect 13 0 14 0;
#X connect 14 0 15 0;
#X connect 15 0 16 0;
#X connect 16 0 17 0;
#X connect 17 0 18 0;
#X connect 17 0 7 1;
#X connect 19 0 9 0;
#X connect 20 0 9 0;
#X restore 100 275 pd markovPitchGenerate;
#X text 251 246 new start pitch;
#X obj 100 426 phasor~;
#X obj 101 524 dac~;
#X obj 101 490 *~;
#X obj 414 361 vsl 15 128 0 1 0 0 empty empty empty 0 -9 0 10 -262144
-1 -1 0 1;
#X obj 100 392 mtof;
#X obj 100 217 metro 175;
#X connect 0 0 3 0;
#X connect 1 0 3 1;
#X connect 3 0 7 0;
#X connect 3 1 2 0;
#X connect 8 0 21 0;
#X connect 9 0 14 0;
#X connect 10 0 11 0;
#X connect 11 0 12 0;
#X connect 11 1 12 1;
#X connect 13 0 14 1;
#X connect 14 0 10 0;
#X connect 16 0 18 0;
#X connect 18 0 17 0;
#X connect 18 0 17 1;
#X connect 19 0 18 1;
#X connect 20 0 16 0;
#X connect 21 0 9 0;
