#N canvas 622 266 844 618 10;
#X obj 87 65 r path;
#X msg 87 98 set read -resize \$1 leftChannel rightChannel;
#X obj 25 100 loadbang;
#X obj 87 194 soundfiler;
#N canvas 0 50 450 250 (subpatch) 0;
#X array leftChannel 12790 float 2;
#X coords 0 1 12790 -1 200 140 1;
#X restore 478 46 graph;
#N canvas 0 50 450 250 (subpatch) 0;
#X array rightChannel 12790 float 2;
#X coords 0 1 12790 -1 200 140 1;
#X restore 476 213 graph;
#X floatatom 162 220 5 0 0 0 Sample_Size - sampleSize;
#X obj 87 242 expr 44100 / $f1;
#X obj 87 265 s rate;
#X obj 89 381 phasor~, f 10;
#X obj 105 404 r sampleSize;
#X obj 24 147 bng 15 250 50 0 empty empty empty 17 7 0 10 -262144 -1
-1;
#X obj 90 428 *~;
#X obj 91 466 tabread4~ leftChannel;
#X obj 122 487 tabread4~ rightChannel;
#X obj 89 359 r pbSpeed;
#X obj 155 359 r pbPos;
#N canvas 275 239 779 634 controls 0;
#X msg 161 291 0;
#X msg 145 240 set \$1;
#X obj 145 215 r rate;
#X msg 120 291 0;
#X obj 120 366 s pbSpeed;
#X obj 184 366 s pbPos;
#X msg 226 291 0;
#X obj 109 109 bng 15 250 50 0 empty pause Pause 17 7 0 10 -258113
-1 -1;
#X obj 165 109 bng 15 250 50 0 empty loop Loop 17 7 0 10 -4034 -1 -1
;
#X obj 109 136 bng 15 250 50 0 empty stop Stop 17 7 0 10 -4160 -1 -1
;
#X obj 165 136 bng 15 250 50 0 empty start Start 17 7 0 10 -159808
-1 -1;
#X connect 0 0 4 0;
#X connect 1 0 0 0;
#X connect 2 0 1 0;
#X connect 3 0 4 0;
#X connect 6 0 5 0;
#X connect 7 0 3 0;
#X connect 8 0 0 0;
#X connect 9 0 6 0;
#X connect 9 0 3 0;
#X connect 10 0 6 0;
#X connect 10 0 0 0;
#X coords 0 -1 1 1 123 59 2 100 100;
#X restore 387 428 pd controls;
#X obj 195 74 print;
#X obj 203 208 unpack f f f f s;
#X obj 665 574 dac~ 1 2;
#X obj 665 544 *~ 0.1;
#X obj 709 544 *~ 0.1;
#X obj 665 514 r~ L;
#X obj 709 514 r~ R;
#X obj 90 507 s~ L;
#X obj 123 507 s~ R;
#X obj 202 228 s mono;
#X obj 709 451 r mono;
#X msg 709 492 set L;
#X msg 748 492 set R;
#X obj 709 471 moses 2;
#X msg 87 120 read -resize \$1 leftChannel rightChannel;
#X connect 0 0 1 0;
#X connect 0 0 11 0;
#X connect 0 0 18 0;
#X connect 1 0 32 0;
#X connect 2 0 32 0;
#X connect 3 0 6 0;
#X connect 3 0 7 0;
#X connect 3 1 19 0;
#X connect 7 0 8 0;
#X connect 9 0 12 0;
#X connect 10 0 12 1;
#X connect 11 0 32 0;
#X connect 12 0 13 0;
#X connect 12 0 14 0;
#X connect 13 0 25 0;
#X connect 14 0 26 0;
#X connect 15 0 9 0;
#X connect 16 0 9 1;
#X connect 19 2 27 0;
#X connect 21 0 20 0;
#X connect 22 0 20 1;
#X connect 23 0 21 0;
#X connect 24 0 22 0;
#X connect 28 0 31 0;
#X connect 29 0 24 0;
#X connect 30 0 24 0;
#X connect 31 0 29 0;
#X connect 31 1 30 0;
#X connect 32 0 3 0;
