#N canvas 1224 311 623 546 10;
#X floatatom 140 343 5 0 0 0 - - -;
#X obj 161 25 tgl 15 0 empty empty empty 17 7 0 10 -262144 -1 -1 0
1;
#X obj 170 438 noteout;
#X obj 161 46 metro 500;
#X obj 161 94 drunk 24 4;
#X obj 140 383 makenote 100 250;
#X floatatom 161 115 5 0 0 0 - - -;
#X obj 103 138 / 7;
#X obj 103 159 int;
#X floatatom 103 180 5 0 0 0 - - -;
#X obj 103 200 * 12;
#X obj 161 135 & 7;
#X floatatom 161 156 5 0 0 0 - - -;
#X obj 161 176 tabread major;
#X floatatom 161 197 5 0 0 0 - - -;
#X obj 140 250 +;
#X floatatom 140 271 5 0 0 0 - - -;
#X obj 140 291 + 48;
#X obj 435 79 table major;
#X obj 352 18 loadbang;
#X msg 310 43 10;
#X obj 352 152 drunk;
#X msg 352 110 20 40 10;
#X floatatom 352 173 5 0 0 0 - - -;
#X obj 352 193 + 70;
#X msg 435 50 \; major 0 0 2 4 5 7 9 11;
#X connect 0 0 5 0;
#X connect 1 0 3 0;
#X connect 3 0 4 0;
#X connect 3 0 21 0;
#X connect 4 0 6 0;
#X connect 5 0 2 0;
#X connect 5 1 2 1;
#X connect 6 0 7 0;
#X connect 6 0 11 0;
#X connect 7 0 8 0;
#X connect 8 0 9 0;
#X connect 9 0 10 0;
#X connect 10 0 15 0;
#X connect 11 0 12 0;
#X connect 12 0 13 0;
#X connect 13 0 14 0;
#X connect 14 0 15 0;
#X connect 15 0 16 0;
#X connect 16 0 17 0;
#X connect 17 0 0 0;
#X connect 19 0 25 0;
#X connect 19 0 20 0;
#X connect 19 0 22 0;
#X connect 20 0 4 0;
#X connect 21 0 23 0;
#X connect 22 0 21 0;
#X connect 23 0 24 0;
#X connect 24 0 5 1;
