#N canvas 1248 221 535 725 10;
#X obj 37 179 t f f f f;
#X obj 37 45 until;
#X msg 37 24 2000;
#X obj 37 97 counter, f 10;
#X floatatom 37 118 5 0 0 0 - - -;
#X obj 37 138 tabread self-sim;
#X floatatom 37 314 5 0 0 0 - - -;
#X obj 37 334 t f b;
#X obj 37 409 tabwrite self-sim;
#X obj 98 376 counter, f 9;
#X obj 82 65 bng 15 250 50 0 empty empty empty 17 7 0 10 -262144 -1
-1;
#X obj 135 342 bng 15 250 50 0 empty empty empty 17 7 0 10 -262144
-1 -1;
#X obj 247 242 tgl 15 0 empty empty empty 17 7 0 10 -262144 -1 -1 0
1;
#X obj 247 306 counter;
#X floatatom 247 326 5 0 0 0 - - -;
#X obj 247 346 tabread self-sim;
#X floatatom 247 367 5 0 0 0 - - -;
#X obj 247 387 + 60;
#X obj 247 408 makenote 100 125;
#X obj 274 285 bng 15 250 50 0 empty empty empty 17 7 0 10 -262144
-1 -1;
#X obj 247 449 noteout;
#X obj 43 209 + 1;
#X obj 63 237 - 1;
#X floatatom 37 160 5 0 0 0 - - -;
#X obj 187 21 table self-sim 2000;
#X obj 247 263 metro 250;
#X connect 0 0 6 0;
#X connect 0 1 21 0;
#X connect 0 2 22 0;
#X connect 0 3 6 0;
#X connect 1 0 3 0;
#X connect 2 0 1 0;
#X connect 3 0 4 0;
#X connect 4 0 5 0;
#X connect 5 0 23 0;
#X connect 6 0 7 0;
#X connect 7 0 8 0;
#X connect 7 1 9 0;
#X connect 9 0 8 1;
#X connect 10 0 3 3;
#X connect 11 0 9 3;
#X connect 12 0 25 0;
#X connect 13 0 14 0;
#X connect 14 0 15 0;
#X connect 15 0 16 0;
#X connect 16 0 17 0;
#X connect 17 0 18 0;
#X connect 18 0 20 0;
#X connect 18 1 20 1;
#X connect 19 0 13 3;
#X connect 21 0 6 0;
#X connect 22 0 6 0;
#X connect 23 0 0 0;
#X connect 25 0 13 0;
