#N canvas 1077 104 658 597 10;
#X obj 176 297 makenote 64 250;
#X msg 259 270 64;
#X obj 176 326 noteout 1;
#X msg 176 268 60;
#X msg 215 270 62;
#X msg 297 270 65;
#X msg 339 270 67;
#X msg 378 270 69;
#X msg 423 270 70;
#X msg 460 270 72;
#X obj 176 104 metro 500;
#X obj 176 132 counter, f 12;
#X floatatom 176 160 5 0 0 0 - - -;
#X obj 176 77 tgl 15 0 empty empty empty 17 7 0 10 -262144 -1 -1 0
1;
#X obj 176 239 sel 0 1 2 3 4 5 6 7, f 48;
#X obj 176 187 % 8;
#X obj 272 109 bng 15 250 50 0 empty empty empty 17 7 0 10 -262144
-1 -1;
#X obj 227 74 r tempo;
#X connect 0 0 2 0;
#X connect 0 1 2 1;
#X connect 1 0 0 0;
#X connect 3 0 0 0;
#X connect 4 0 0 0;
#X connect 5 0 0 0;
#X connect 6 0 0 0;
#X connect 7 0 0 0;
#X connect 8 0 0 0;
#X connect 9 0 0 0;
#X connect 10 0 11 0;
#X connect 11 0 12 0;
#X connect 12 0 15 0;
#X connect 13 0 10 0;
#X connect 14 0 3 0;
#X connect 14 1 4 0;
#X connect 14 2 1 0;
#X connect 14 3 5 0;
#X connect 14 4 6 0;
#X connect 14 5 7 0;
#X connect 14 6 8 0;
#X connect 14 7 9 0;
#X connect 14 8 3 0;
#X connect 15 0 14 0;
#X connect 16 0 11 1;
#X connect 17 0 10 1;
