#N canvas 653 114 426 481 10;
#X obj 97 17 inlet;
#X obj 151 18 inlet;
#X obj 99 108 pack f f f;
#X obj 94 140 route 1 2 3 4;
#X obj 107 74 poly 4 1;
#X obj 28 212 outlet;
#X obj 75 214 outlet;
#X obj 122 212 outlet;
#X obj 170 212 outlet;
#X obj 221 216 outlet;
#X connect 0 0 4 0;
#X connect 1 0 4 1;
#X connect 2 0 3 0;
#X connect 3 0 5 0;
#X connect 3 1 6 0;
#X connect 3 2 7 0;
#X connect 3 3 8 0;
#X connect 3 4 9 0;
#X connect 4 0 2 0;
#X connect 4 1 2 1;
#X connect 4 2 2 2;
