#N canvas 515 63 450 300 10;
#X obj 85 69 unpack f f;
#X obj 163 69 unpack f f f f;
#X obj 85 96 mtof;
#X obj 166 123 st-adsr~, f 11;
#X obj 85 123 phasor~;
#X obj 85 150 -~ 0.5;
#X obj 85 190 *~;
#X obj 85 42 inlet note;
#X obj 163 42 inlet adsr;
#X obj 85 228 outlet~;
#X connect 0 0 2 0;
#X connect 0 1 3 0;
#X connect 1 0 3 1;
#X connect 1 1 3 2;
#X connect 1 2 3 3;
#X connect 1 3 3 4;
#X connect 2 0 4 0;
#X connect 3 0 6 1;
#X connect 4 0 5 0;
#X connect 5 0 6 0;
#X connect 6 0 9 0;
#X connect 7 0 0 0;
#X connect 8 0 1 0;
