#N canvas 598 90 890 888 10;
#X obj 569 707 dac~ 1 2;
#X obj 582 624 *~ 0.1;
#X obj 584 563 r~ audio-out;
#X obj 79 203 osc~;
#X obj 232 584 s~ audio-out;
#X obj 697 468 vsl 15 128 0 1 0 0 empty empty empty 0 -9 0 10 -262144
-1 -1 12700 1;
#X obj 660 646 nbx 5 14 -1e+037 1e+037 0 0 empty empty empty 0 -8 0
10 -262144 -1 -1 1 256;
#X obj 80 261 *~;
#X obj 136 222 st-adsr~, f 12;
#X obj 234 259 notein;
#X obj 79 159 mtof;
#X obj 178 42 vsl 15 128 10 10000 1 0 empty empty A 3 -9 0 14 -262144
-1 -1 2100 1;
#X obj 198 42 vsl 15 128 10 10000 1 0 empty empty D 3 -9 0 14 -262144
-1 -1 4000 1;
#X obj 238 42 vsl 15 128 10 10000 1 0 empty empty R 3 -9 0 14 -262144
-1 -1 5700 1;
#X obj 218 42 vsl 15 128 0.1 1.1 1 0 empty empty S 3 -9 0 14 -262144
-1 -1 12700 1;
#X obj 166 191 -10;
#X obj 193 191 -10;
#X obj 250 191 -10;
#X obj 219 191 -0.1;
#X obj 79 59 poly 1 1;
#X obj 79 80 pack 0 0 0;
#X obj 79 101 route 1;
#X obj 79 122 unpack 0 0;
#X obj 642 409 hsl 128 15 1 256 1 0 empty empty Q -2 -8 0 10 -262144
-1 -1 200 1;
#X obj 315 535 - 1;
#X obj 232 549 vcf~, f 8;
#X obj 234 288 st-fournotes;
#X obj 233 347 st-sqvoice;
#X obj 303 347 st-sqvoice;
#X obj 371 347 st-sqvoice;
#X obj 440 347 st-sqvoice;
#X obj 233 440 *~ 0.25;
#X obj 476 140 vsl 15 128 10 10000 1 0 empty empty A 3 -9 0 14 -262144
-1 -1 500 1;
#X obj 496 140 vsl 15 128 10 10000 1 0 empty empty D 3 -9 0 14 -262144
-1 -1 1400 1;
#X obj 536 140 vsl 15 128 10 10000 1 0 empty empty R 3 -9 0 14 -262144
-1 -1 12700 1;
#X obj 516 140 vsl 15 128 0.1 1.1 1 0 empty empty S 3 -9 0 14 -262144
-1 -1 12500 1;
#X obj 425 294 -10;
#X obj 452 294 -10;
#X obj 509 294 -10;
#X obj 478 294 -0.1;
#X obj 554 294 vsl 15 128 10 10000 1 0 empty empty A 3 -9 0 14 -262144
-1 -1 600 1;
#X obj 574 293 vsl 15 128 10 10000 1 0 empty empty D 3 -9 0 14 -262144
-1 -1 2900 1;
#X obj 614 293 vsl 15 128 10 10000 1 0 empty empty R 3 -9 0 14 -262144
-1 -1 9200 1;
#X obj 594 293 vsl 15 128 0.1 1.1 1 0 empty empty S 3 -9 0 14 -262144
-1 -1 11800 1;
#X obj 300 469 -10;
#X obj 327 469 -10;
#X obj 384 469 -10;
#X obj 353 469 -0.1;
#X obj 426 317 pack f f f f;
#X obj 288 501 st-adsr~;
#X obj 253 500 sig~;
#X floatatom 253 475 5 0 0 0 - - -;
#X obj 253 525 *~;
#X msg 167 450 1;
#X obj 313 618 env~;
#X obj 313 639 nbx 5 14 -1e+037 1e+037 0 0 empty empty empty 0 -8 0
10 -262144 -1 -1 0 256;
#X connect 1 0 0 1;
#X connect 1 0 0 0;
#X connect 2 0 1 0;
#X connect 3 0 7 0;
#X connect 5 0 1 1;
#X connect 5 0 6 0;
#X connect 8 0 7 1;
#X connect 9 0 26 0;
#X connect 9 1 26 1;
#X connect 9 1 49 0;
#X connect 10 0 3 0;
#X connect 11 0 15 0;
#X connect 12 0 16 0;
#X connect 13 0 17 0;
#X connect 14 0 18 0;
#X connect 15 0 8 1;
#X connect 16 0 8 2;
#X connect 17 0 8 4;
#X connect 18 0 8 3;
#X connect 19 0 20 0;
#X connect 19 1 20 1;
#X connect 19 2 20 2;
#X connect 20 0 21 0;
#X connect 21 0 22 0;
#X connect 22 0 10 0;
#X connect 22 1 8 0;
#X connect 23 0 24 0;
#X connect 24 0 25 2;
#X connect 25 0 4 0;
#X connect 26 0 27 0;
#X connect 26 1 28 0;
#X connect 26 2 29 0;
#X connect 26 3 30 0;
#X connect 27 0 31 0;
#X connect 28 0 31 0;
#X connect 29 0 31 0;
#X connect 30 0 31 0;
#X connect 31 0 25 0;
#X connect 32 0 36 0;
#X connect 33 0 37 0;
#X connect 34 0 38 0;
#X connect 35 0 39 0;
#X connect 36 0 48 0;
#X connect 37 0 48 1;
#X connect 38 0 48 3;
#X connect 39 0 48 2;
#X connect 40 0 44 0;
#X connect 41 0 45 0;
#X connect 42 0 46 0;
#X connect 43 0 47 0;
#X connect 44 0 49 1;
#X connect 45 0 49 2;
#X connect 46 0 49 4;
#X connect 47 0 49 3;
#X connect 48 0 30 1;
#X connect 48 0 29 1;
#X connect 48 0 28 1;
#X connect 48 0 27 1;
#X connect 49 0 52 1;
#X connect 49 0 54 0;
#X connect 50 0 52 0;
#X connect 51 0 50 0;
#X connect 52 0 25 1;
#X connect 53 0 52 1;
#X connect 54 0 55 0;
