#N canvas 862 182 798 684 10;
#X obj 36 164 noise~;
#X obj 37 213 bp~, f 5;
#X floatatom 43 189 5 0 0 0 - - -;
#X floatatom 77 189 5 0 8 0 - - -;
#X obj 114 170 noise~;
#X obj 114 215 bp~, f 5;
#X floatatom 127 189 5 0 0 0 - - -;
#X floatatom 162 189 5 0 8 0 - - -;
#X obj 202 170 noise~;
#X obj 202 215 bp~, f 5;
#X floatatom 216 189 5 0 0 0 - - -;
#X floatatom 250 189 5 0 8 0 - - -;
#X obj 129 303 bp~, f 13;
#X floatatom 216 240 5 0 0 0 - - -;
#X msg 251 75 1.5;
#X msg 43 75 200;
#X msg 127 75 450;
#X msg 216 75 750;
#X floatatom 456 186 5 0 0 0 - - -;
#X obj 129 426 dac~;
#X obj 129 385 *~ 0.2;
#X obj 379 225 line, f 10;
#X floatatom 450 131 5 0 0 0 - - -;
#X floatatom 379 252 5 0 0 0 - - -;
#X obj 379 201 \$1 \$2;
#X obj 379 106 metro 1 \$1 msec;
#X obj 379 130 random 399;
#X obj 379 154 expr ($f1+1)/100;
#X msg 466 83 1200;
#X obj 259 15 loadbang;
#X obj 298 143 r variable;
#X obj 316 202 \$1 100;
#X obj 329 167 print;
#X connect 0 0 1 0;
#X connect 1 0 12 0;
#X connect 2 0 1 1;
#X connect 3 0 1 2;
#X connect 4 0 5 0;
#X connect 5 0 12 0;
#X connect 6 0 5 1;
#X connect 7 0 5 2;
#X connect 8 0 9 0;
#X connect 9 0 12 0;
#X connect 10 0 9 1;
#X connect 11 0 9 2;
#X connect 12 0 20 0;
#X connect 13 0 12 1;
#X connect 14 0 3 0;
#X connect 14 0 7 0;
#X connect 14 0 11 0;
#X connect 15 0 2 0;
#X connect 16 0 6 0;
#X connect 16 0 13 0;
#X connect 17 0 10 0;
#X connect 20 0 19 0;
#X connect 20 0 19 1;
#X connect 21 0 12 2;
#X connect 21 0 23 0;
#X connect 22 0 24 1;
#X connect 22 0 25 1;
#X connect 24 0 21 0;
#X connect 25 0 22 0;
#X connect 25 0 26 0;
#X connect 26 0 27 0;
#X connect 27 0 18 0;
#X connect 27 0 24 0;
#X connect 28 0 22 0;
#X connect 29 0 25 0;
#X connect 29 0 28 0;
#X connect 29 0 17 0;
#X connect 29 0 16 0;
#X connect 29 0 15 0;
#X connect 29 0 14 0;
#X connect 30 0 31 0;
#X connect 30 0 32 0;
#X connect 31 0 21 0;
